REM DIRINDEX 1\2,1\3,1\4,1\5
REM DIRNAME cjc004,folder01,folder02,folder03,folder04
TITLE ""
FILE "1Q_t_1129-1138.mp3" MP3
  TRACK 01 AUDIO
    TITLE "3:cjc004_4291"
    INDEX 01 00:00:00
  TRACK 02 AUDIO
    TITLE "0:"
    INDEX 01 00:01:15
  TRACK 03 AUDIO
    TITLE "4:cjc004_4292"
    INDEX 01 00:01:42
  TRACK 04 AUDIO
    TITLE "0:"
    INDEX 01 00:02:47
  TRACK 05 AUDIO
    TITLE "5:cjc004_4293"
    INDEX 01 00:02:71
  TRACK 06 AUDIO
    TITLE "0:"
    INDEX 01 00:08:48
  TRACK 07 AUDIO
    TITLE "3:cjc004_4294"
    INDEX 01 00:09:26
  TRACK 08 AUDIO
    TITLE "0:"
    INDEX 01 00:10:33
  TRACK 09 AUDIO
    TITLE "4:cjc004_4295"
    INDEX 01 00:10:61
  TRACK 10 AUDIO
    TITLE "0:"
    INDEX 01 00:11:50
  TRACK 11 AUDIO
    TITLE "5:cjc004_4296"
    INDEX 01 00:11:70
  TRACK 12 AUDIO
    TITLE "0:"
    INDEX 01 00:15:50
  TRACK 13 AUDIO
    TITLE "3:cjc004_4297"
    INDEX 01 00:16:34
  TRACK 14 AUDIO
    TITLE "0:"
    INDEX 01 00:17:51
  TRACK 15 AUDIO
    TITLE "4:cjc004_4298"
    INDEX 01 00:17:74
  TRACK 16 AUDIO
    TITLE "0:"
    INDEX 01 00:19:24
  TRACK 17 AUDIO
    TITLE "5:cjc004_4299"
    INDEX 01 00:19:46
  TRACK 18 AUDIO
    TITLE "0:"
    INDEX 01 00:24:45
  TRACK 19 AUDIO
    TITLE "3:cjc004_4300"
    INDEX 01 00:25:27
  TRACK 20 AUDIO
    TITLE "0:"
    INDEX 01 00:26:48
  TRACK 21 AUDIO
    TITLE "4:cjc004_4301"
    INDEX 01 00:27:02
  TRACK 22 AUDIO
    TITLE "0:"
    INDEX 01 00:28:21
  TRACK 23 AUDIO
    TITLE "5:cjc004_4302"
    INDEX 01 00:28:43
  TRACK 24 AUDIO
    TITLE "0:"
    INDEX 01 00:32:66
  TRACK 25 AUDIO
    TITLE "3:cjc004_4303"
    INDEX 01 00:33:46
  TRACK 26 AUDIO
    TITLE "0:"
    INDEX 01 00:34:69
  TRACK 27 AUDIO
    TITLE "4:cjc004_4304"
    INDEX 01 00:35:19
  TRACK 28 AUDIO
    TITLE "0:"
    INDEX 01 00:36:33
  TRACK 29 AUDIO
    TITLE "5:cjc004_4305"
    INDEX 01 00:36:62
  TRACK 30 AUDIO
    TITLE "0:"
    INDEX 01 00:41:12
  TRACK 31 AUDIO
    TITLE "3:cjc004_4306"
    INDEX 01 00:41:63
  TRACK 32 AUDIO
    TITLE "0:"
    INDEX 01 00:43:09
  TRACK 33 AUDIO
    TITLE "4:cjc004_4307"
    INDEX 01 00:43:39
  TRACK 34 AUDIO
    TITLE "0:"
    INDEX 01 00:44:48
  TRACK 35 AUDIO
    TITLE "5:cjc004_4308"
    INDEX 01 00:44:73
  TRACK 36 AUDIO
    TITLE "0:"
    INDEX 01 00:51:38
  TRACK 37 AUDIO
    TITLE "3:cjc004_4309"
    INDEX 01 00:52:22
  TRACK 38 AUDIO
    TITLE "0:"
    INDEX 01 00:53:23
  TRACK 39 AUDIO
    TITLE "4:cjc004_4310"
    INDEX 01 00:53:51
  TRACK 40 AUDIO
    TITLE "0:"
    INDEX 01 00:54:40
  TRACK 41 AUDIO
    TITLE "5:cjc004_4311"
    INDEX 01 00:54:62
  TRACK 42 AUDIO
    TITLE "0:"
    INDEX 01 00:58:50
  TRACK 43 AUDIO
    TITLE "3:cjc004_4312"
    INDEX 01 00:59:28
  TRACK 44 AUDIO
    TITLE "0:"
    INDEX 01 01:00:47
  TRACK 45 AUDIO
    TITLE "4:cjc004_4313"
    INDEX 01 01:00:74
  TRACK 46 AUDIO
    TITLE "0:"
    INDEX 01 01:02:14
  TRACK 47 AUDIO
    TITLE "5:cjc004_4314"
    INDEX 01 01:02:38
  TRACK 48 AUDIO
    TITLE "0:"
    INDEX 01 01:08:38
  TRACK 49 AUDIO
    TITLE "3:cjc004_4315"
    INDEX 01 01:09:22
  TRACK 50 AUDIO
    TITLE "0:"
    INDEX 01 01:10:26
  TRACK 51 AUDIO
    TITLE "4:cjc004_4316"
    INDEX 01 01:10:57
  TRACK 52 AUDIO
    TITLE "0:"
    INDEX 01 01:11:56
  TRACK 53 AUDIO
    TITLE "5:cjc004_4317"
    INDEX 01 01:12:11
  TRACK 54 AUDIO
    TITLE "0:"
    INDEX 01 01:18:06
  TRACK 55 AUDIO
    TITLE "3:cjc004_4318"
    INDEX 01 01:18:62
  TRACK 56 AUDIO
    TITLE "0:"
    INDEX 01 01:20:12
  TRACK 57 AUDIO
    TITLE "4:cjc004_4319"
    INDEX 01 01:20:36
  TRACK 58 AUDIO
    TITLE "0:"
    INDEX 01 01:21:53
  TRACK 59 AUDIO
    TITLE "5:cjc004_4320"
    INDEX 01 01:22:05
  TRACK 60 AUDIO
    TITLE "0:"
    INDEX 01 01:26:62
